<?xml version="1.0" encoding="UTF-8" standalone="no"?>
<!-- Generator: Adobe Illustrator 23.0.1, SVG Export Plug-In . SVG Version: 6.00 Build 0)  -->

<svg
   xmlns:dc="http://purl.org/dc/elements/1.1/"
   xmlns:cc="http://creativecommons.org/ns#"
   xmlns:rdf="http://www.w3.org/1999/02/22-rdf-syntax-ns#"
   xmlns:svg="http://www.w3.org/2000/svg"
   xmlns="http://www.w3.org/2000/svg"
   xmlns:sodipodi="http://sodipodi.sourceforge.net/DTD/sodipodi-0.dtd"
   xmlns:inkscape="http://www.inkscape.org/namespaces/inkscape"
   version="1.1"
   id="圖層_1"
   x="0px"
   y="0px"
   viewBox="0 0 84.800001 84.899998"
   xml:space="preserve"
   sodipodi:docname="logo.svg"
   width="84.800003"
   height="84.900002"
   inkscape:version="0.92.3 (2405546, 2018-03-11)"><metadata
   id="metadata181"><rdf:RDF><cc:Work
       rdf:about=""><dc:format>image/svg+xml</dc:format><dc:type
         rdf:resource="http://purl.org/dc/dcmitype/StillImage" /><dc:title></dc:title></cc:Work></rdf:RDF></metadata><defs
   id="defs179" /><sodipodi:namedview
   pagecolor="#ffffff"
   bordercolor="#666666"
   borderopacity="1"
   objecttolerance="10"
   gridtolerance="10"
   guidetolerance="10"
   inkscape:pageopacity="0"
   inkscape:pageshadow="2"
   inkscape:window-width="1196"
   inkscape:window-height="671"
   id="namedview177"
   showgrid="false"
   inkscape:zoom="1.647819"
   inkscape:cx="226.05638"
   inkscape:cy="42.499998"
   inkscape:window-x="440"
   inkscape:window-y="249"
   inkscape:window-maximized="0"
   inkscape:current-layer="圖層_1"
   fit-margin-top="0"
   fit-margin-left="0"
   fit-margin-right="0"
   fit-margin-bottom="0" />
<style
   type="text/css"
   id="style2">
	.st0{fill:#FFFFFF;}
	.st1{fill:#6A6969;}
	.st2{fill:none;}
	.st3{fill:#4981BF;}
	.st4{fill:#A0CB50;}
</style>


<g
   id="g174">
	<polygon
   class="st2"
   points="70.8,54.5 68.8,54.5 68.9,54.6 70.3,54.6 "
   id="polygon154"
   style="fill:none" />
	<polygon
   class="st2"
   points="71.3,52.9 78.4,52.9 78.9,52.8 71.3,52.8 68.2,48.4 "
   id="polygon156"
   style="fill:none" />
	<g
   id="g162">
		<path
   class="st3"
   d="M 42.4,0 C 19,0 0,19 0,42.4 c 0,0.6 0,1.3 0,1.9 0,0.1 0,0.1 0,0.2 L 14.4,44.4 C 20,36 25.6,27.7 31.1,19.3 c 1,-1 1.7,-1.1 2.6,-0.8 L 38.1,23.2 20.8,47.6 0.3,47.5 c 0.1,0.7 0.2,1.5 0.3,2.2 L 22.5,49.8 47.6,12 c 0.6,-0.5 1,-0.9 2.2,-0.8 0.6,0.1 1.1,0.2 2,1.1 L 77.9,50 H 84 c 0.5,-2.5 0.8,-5.2 0.8,-7.6 C 84.8,19 65.7,0 42.4,0 Z"
   id="path158"
   inkscape:connector-curvature="0"
   style="fill:#4981bf" />
		<path
   class="st3"
   d="M 68.2,48.4 Z"
   id="path160"
   inkscape:connector-curvature="0"
   style="fill:#4981bf" />
	</g>
	<path
   class="st4"
   d="m 83.6,51.8 v 0.2 0 l -0.2,0.8 h -4.5 l -0.5,0.1 h -7.1 l -3.1,-4.5 v 0 L 49.7,22.3 33.9,46 29.2,53 h -12 L 1.3,52.9 H 1.1 l 0.5,1.9 h 0.3 l 11.1,-0.1 17.7,-0.1 7.2,-10.3 12,-17.2 14,20.3 4.9,7.1 h 2 l -0.5,0.1 h 12.6 l -1.2,3.2 H 62.5 l -9,-12.8 -4.3,-6.1 -2.8,4.4 -9,14.1 H 6.6 2.8 2.6 C 8.7,73.7 24.6,84.9 42.3,84.9 62,84.9 79.4,71 83.6,51.8 Z"
   id="path164"
   inkscape:connector-curvature="0"
   style="fill:#a0cb50" />
	<g
   id="g172">
		<path
   class="st0"
   d="M 38.1,23.2 33.7,18.5 C 32.8,18.2 32.1,18.3 31.1,19.3 25.6,27.7 20,36 14.4,44.4 L 0,44.5 v 0 l 0.2,3 h 0.1 l 20.5,0.1 z"
   id="path166"
   inkscape:connector-curvature="0"
   style="fill:#ffffff" />
		<polygon
   class="st0"
   points="63.9,47.4 49.9,27.1 37.9,44.3 30.7,54.6 13,54.7 1.9,54.8 1.6,54.8 2,56.1 2.5,57.4 2.6,57.4 2.8,57.4 6.6,57.4 37.4,57.4 46.4,43.3 49.2,38.9 53.5,45 62.5,57.8 81.7,57.8 82.9,54.6 70.3,54.6 68.9,54.6 68.8,54.5 "
   id="polygon168"
   style="fill:#ffffff" />
		<path
   class="st0"
   d="M 84,50 H 77.9 L 51.8,12.3 c -0.9,-0.9 -1.4,-1 -2,-1.1 -1.2,-0.1 -1.6,0.3 -2.2,0.8 L 22.5,49.8 0.6,49.7 v 0 l 0.2,1.7 0.3,1.5 H 1.3 L 17.2,53 h 12 l 4.7,-7 15.8,-23.7 18.5,26.1 v 0 l 3.1,4.4 h 7.6 4.5 L 83.6,52 v 0 -0.2 z"
   id="path170"
   inkscape:connector-curvature="0"
   style="fill:#ffffff" />
	</g>
</g>
</svg>